<svg width="159" height="97" xmlns="http://www.w3.org/2000/svg" fill="none" viewBox="0 0 159 97">
  <g clip-path="url(#a)">
    <path fill="#563518"
      d="M86.285 46.8c.125-.015.234-.03.343-.046 1.56-.063 3.12-.125 4.664-.156 3.01-.063 6.02-.094 9.046-.156 6.926-.14 13.835-.078 20.761-.094.998 0 2.012 0 3.01-.047 2.589-.125 5.1-.608 7.549-1.466 1.404-.499 2.761-1.107 3.977-1.996a9.754 9.754 0 0 0 2.434-2.557c.467-.718.686-1.513.795-2.355.172-1.279.062-2.542-.187-3.805-.187-.89-.359-1.763-.655-2.62-.468-1.341-1.186-2.527-2.059-3.634a18.621 18.621 0 0 0-3.432-3.4 15.037 15.037 0 0 1-.764-.623c-1.17-.998-2.558-1.56-4.024-1.903-1.263-.296-2.527-.327-3.79-.015-.702.171-1.341.483-1.95.826-.702.39-1.388.795-2.105 1.17a9.327 9.327 0 0 1-4.57 1.045c-.11 0-.219-.032-.375-.063.125-.218.312-.203.468-.25l1.731-.467c.952-.265 1.841-.686 2.699-1.17.733-.42 1.466-.858 2.199-1.279.078-.046.156-.109.281-.202-.125-.047-.187-.094-.265-.11-1.077-.187-2.122-.545-3.167-.842-.842-.218-1.684-.452-2.511-.655-.717-.187-1.45-.171-2.183-.03-.125.03-.234.03-.375.046-.031-.234.125-.28.25-.343a3.765 3.765 0 0 1 1.372-.328c1.388-.078 2.777.063 4.149.312.952.172 1.903.375 2.87.515.749.11 1.497.156 2.262.187.998.047 2.012.031 3.01.062 2.496.078 4.757.874 6.879 2.184 1.606.998 2.947 2.261 4.164 3.68.452.53.905 1.03 1.373 1.544.109.125.218.296.421.218.187-.062.265-.25.28-.436a5.69 5.69 0 0 0 0-.905c-.155-1.403-.467-2.76-1.232-3.976-.343-.546-.764-1.061-1.154-1.591-.093-.125-.249-.218-.234-.421 0-.063-.078-.125-.125-.187-.452-.468-.904-.952-1.372-1.404a4.461 4.461 0 0 0-.827-.592 17.746 17.746 0 0 0-4.461-1.856 19.734 19.734 0 0 1-5.911-2.636c-.141-.093-.265-.203-.406-.312.156-.171.281-.078.39-.03.64.249 1.279.514 1.919.763.686.265 1.357.562 2.059.78 1.263.39 2.558.67 3.852.889.936.156 1.856.39 2.698.858.063.03.141.062.219.093.015 0 .047-.015.093-.047a.673.673 0 0 0-.078-.234c-.514-.998-1.029-1.98-1.544-2.978-.046-.094-.109-.172-.124-.28-.032-.141.078-.235.202-.172.125.062.234.14.328.233.265.312.515.624.749.952.779 1.076 1.512 2.199 2.308 3.26.483.639 1.045 1.215 1.56 1.824.28.327.53.67.764 1.029a26.23 26.23 0 0 1 2.433 4.632c.125.311.296.343.515.093.062-.078.125-.156.171-.25.78-1.247 1.248-2.62 1.498-4.07.062-.358.047-.717.078-1.076.031-.468.093-.935.109-1.419.094-2.043-.25-3.992-1.326-5.754-.92-1.497-2.23-2.589-3.79-3.4-1.451-.748-2.948-.748-4.445-.093-1.014.452-2.09.717-3.167.95a7.495 7.495 0 0 1-3.712-.202c-1.201-.374-2.308-.92-3.369-1.575a238.609 238.609 0 0 0-2.62-1.622c-.686-.421-1.388-.842-2.153-1.123-.421-.156-.842-.28-1.279-.25-.046 0-.093-.015-.156-.03.016-.047.016-.078.032-.078.826-.281 1.123-.312 1.965-.032.639.219 1.279.453 1.887.749.889.421 1.763.873 2.621 1.326 1.279.67 2.62 1.138 4.071 1.294.967.11 1.934.031 2.901-.125.826-.14 1.637-.343 2.402-.67.202-.094.405-.203.577-.344.203-.155.234-.343.109-.56a2.156 2.156 0 0 0-.359-.484c-.281-.312-.577-.593-.889-.89a12.507 12.507 0 0 1-2.106-2.682c-.296-.514-.499-1.076-.748-1.621.093-.094.156-.14.218-.203.031.015.078.031.094.062.624.749 1.248 1.513 1.856 2.261.78.967 1.669 1.84 2.589 2.667.39.359.873.515 1.373.624 1.263.265 2.48.655 3.618 1.294a13.52 13.52 0 0 1 2.527 1.856c.094.078.187.156.265.234.203-.062.25-.234.281-.374a3.648 3.648 0 0 0 .078-1.638c-.187-1.2-.64-2.323-1.17-3.415-.016-.031-.062-.14-.14-.312.14.047.218.047.265.094.187.171.374.327.515.53.311.452.623.92.889 1.403 1.029 1.95 1.637 4.055 2.027 6.207.219 1.185.281 2.37.343 3.571.016.406.063.811.125 1.217.016.109.078.265.172.296.14.063.249-.078.312-.187.156-.25.327-.515.452-.795.562-1.217.92-2.496 1.232-3.79.453-1.887.796-3.805.874-5.754.031-.749-.016-1.513-.032-2.262 0-.062 0-.109.016-.234.078.094.156.125.172.188.093.343.202.67.265 1.013.437 2.417.359 4.835-.016 7.252-.015.109-.031.218-.031.343 0 .047.016.11.031.156.187.093.312-.031.437-.125.374-.28.702-.608 1.107-.842 1.17-.702 2.371-1.357 3.557-2.027.124-.078.265-.11.389-.156.219.265.234.39.016.577-.156.14-.343.25-.53.358-.827.515-1.622 1.045-2.387 1.67-1.154.95-2.074 2.104-2.823 3.399-.343.592-.639 1.2-.982 1.777-.468.78-.843 1.622-1.201 2.465-.219.499-.375 1.013-.562 1.528-.171.468-.327.936-.499 1.388a4.704 4.704 0 0 1-.281.64 66.396 66.396 0 0 0-2.901 6.33c-.468 1.186-.702 2.45-.905 3.712-.187 1.217-.14 2.433-.078 3.65.032.701.063 1.419.141 2.12.109.905.359 1.763.749 2.59a9.973 9.973 0 0 0 2.386 3.134c.405.358.905.592 1.388.826.062.031.14.047.187.078.047.031.109.11.109.14-.015.063-.078.125-.14.156-.062.032-.156.032-.234.032-1.435.03-2.87.109-4.305.109-7.58.015-15.176.047-22.756.031-10.263-.016-20.527-.062-30.79-.094-1.091 0-2.183 0-3.29-.015-.203-.016-.39 0-.5-.25ZM44.265 62.785c.359 0 .624.266.624.624v1.778a.607.607 0 0 1-.624.624H29.183a.607.607 0 0 1-.624-.624V63.41c0-.358.265-.623.623-.623h.983l1.154-4.788c.687-2.838 2.48-4.616 6.037-4.616h5.147c.358 0 .624.265.624.624v8.78h1.138Zm-5.053-6.393h-1.857c-1.154 0-1.809.623-2.043 1.59l-1.154 4.788h5.054v-6.378ZM55.527 58.7l-4.43 6.471c-.171.266-.53.624-.982.624h-3.01a.607.607 0 0 1-.624-.624V53.99c0-.359.265-.624.623-.624h2.668c.358 0 .623.265.623.624v6.472h.172l4.43-6.472c.171-.265.53-.624.982-.624h3.01c.36 0 .625.265.625.624v11.181a.607.607 0 0 1-.624.624h-2.668a.607.607 0 0 1-.623-.624V58.7h-.172ZM75.225 65.171a.607.607 0 0 1-.624.624h-2.667a.607.607 0 0 1-.624-.624V61.18h-5.147v3.992a.607.607 0 0 1-.624.624h-2.667a.607.607 0 0 1-.624-.624V53.99c0-.359.265-.624.624-.624h2.667c.359 0 .624.265.624.624v4.164h5.147V53.99c0-.359.265-.624.624-.624h2.667c.359 0 .624.265.624.624v11.181ZM86.908 63.58h-5.584l-.623 1.591c-.14.36-.437.624-.796.624h-2.854c-.359 0-.609-.265-.437-.624l4.96-11.181c.156-.359.437-.624.796-.624h3.634c.358 0 .64.25.795.608l4.96 11.197c.156.36-.094.624-.437.624h-3.01c-.359 0-.655-.265-.795-.624l-.609-1.59Zm-4.351-2.931h3.103l-1.419-3.54h-.171l-1.513 3.54ZM105.937 57.28c0 .438-.265.703-.702.703h-2.215c-.53 0-.795-.265-1.061-.702-.436-.718-1.06-1.326-2.402-1.326-1.95 0-3.197 1.248-3.197 3.634s1.248 3.633 3.197 3.633c1.42 0 2.122-.701 2.574-1.512.25-.437.53-.702 1.061-.702h2.214c.437 0 .702.265.702.702 0 2.12-2.308 4.429-6.566 4.429-4.695 0-7.269-2.573-7.269-6.566 0-3.992 2.574-6.565 7.269-6.565 4.18.015 6.395 2.23 6.395 4.273ZM119.429 55.768a.606.606 0 0 1-.624.624h-3.728v8.78a.606.606 0 0 1-.624.623h-2.667a.606.606 0 0 1-.624-.624v-8.78h-3.728a.606.606 0 0 1-.623-.623V53.99c0-.359.265-.624.623-.624h11.355c.359 0 .624.265.624.624v1.778h.016ZM130.066 58.7l-4.43 6.471c-.171.266-.53.624-.982.624h-3.011a.606.606 0 0 1-.623-.624V53.99c0-.359.265-.624.623-.624h2.668c.358 0 .623.265.623.624v6.472h.172l4.43-6.472c.171-.265.53-.624.982-.624h3.011c.358 0 .624.265.624.624v11.181a.607.607 0 0 1-.624.624h-2.667a.606.606 0 0 1-.624-.624V58.7h-.172ZM136.554 57.64c0-2.402 1.857-4.258 5.849-4.258h6.302c.359 0 .624.265.624.624v11.181a.606.606 0 0 1-.624.624h-2.667a.606.606 0 0 1-.624-.624v-3.275h-2.387l-2.48 3.275c-.202.265-.53.624-1.154.624h-3.01c-.437 0-.64-.359-.437-.624l3.198-4.164v-.171c-.016-.016-2.59-.562-2.59-3.213Zm8.86 1.418V56.22h-3.011c-1.154 0-1.778.624-1.778 1.42 0 .795.624 1.418 1.778 1.418h3.011ZM31.99 72.626h-.749c-.203-.359-.53-.53-.967-.53-.359 0-.64.124-.873.374-.234.25-.344.546-.344.92s.11.67.344.92c.233.25.514.374.873.374.437 0 .764-.171.967-.53h.749c-.125.359-.343.64-.655.842a1.885 1.885 0 0 1-1.061.312c-.53 0-.983-.187-1.357-.546-.359-.359-.546-.826-.546-1.372 0-.546.187-.998.546-1.373.359-.358.811-.545 1.357-.545.405 0 .749.109 1.06.312.313.202.53.499.656.842ZM35.438 74.684c.452 0 .78-.156.967-.483h.733a1.685 1.685 0 0 1-.64.826c-.296.203-.654.297-1.06.297-.546 0-.998-.188-1.357-.546-.359-.359-.546-.827-.546-1.388 0-.546.172-.998.53-1.373.344-.358.796-.545 1.342-.545.515 0 .936.187 1.279.546.343.358.514.81.514 1.325 0 .156 0 .25-.015.296h-2.932c.046.297.171.546.405.749.203.187.468.296.78.296Zm-.031-2.588a1.26 1.26 0 0 0-.78.249 1.111 1.111 0 0 0-.374.686h2.23c-.047-.296-.156-.515-.343-.686a1.156 1.156 0 0 0-.733-.25ZM38.447 72.174v-.593h3.494v.593h-1.404v3.025h-.686v-3.025h-1.404ZM44.202 72.766h1.263c.453 0 .78.11 1.014.343.234.234.343.515.343.874 0 .358-.109.639-.343.873-.234.234-.577.343-1.014.343h-1.95v-3.634h.687v1.201Zm0 1.84h1.248c.234 0 .405-.046.53-.155a.577.577 0 0 0 .187-.453c0-.203-.062-.359-.187-.452-.125-.11-.296-.156-.53-.156h-1.248v1.216ZM54.808 72.797l-1.17 2.402h-.686l-1.186-2.402V75.2h-.686v-3.634h.78l1.435 2.917 1.435-2.917h.764V75.2h-.686v-2.402ZM59.223 74.669c.453 0 .78-.156.967-.484h.733a1.685 1.685 0 0 1-.64.827c-.296.202-.654.296-1.06.296-.546 0-.998-.187-1.357-.546-.358-.359-.546-.826-.546-1.388 0-.546.172-.998.53-1.372.344-.359.796-.546 1.342-.546.515 0 .936.187 1.279.546.343.359.515.81.515 1.325 0 .156 0 .25-.016.297h-2.932c.047.296.171.546.405.748.188.187.468.297.78.297Zm-.047-2.574a1.26 1.26 0 0 0-.78.25 1.111 1.111 0 0 0-.374.686h2.23c-.046-.296-.155-.515-.343-.686-.202-.172-.436-.25-.733-.25ZM66.71 76.181h-.685v-.998h-3.042v.998h-.686v-1.59h.421c.296-.28.452-.78.452-1.528V71.55h2.933v3.025h.592l.016 1.606Zm-2.853-4.023v.904c0 .687-.11 1.186-.312 1.529h1.903v-2.433h-1.591ZM69.128 75.183h-.687V71.55h.687v2.65l2.12-2.65h.687v3.633h-.686v-2.65l-2.121 2.65ZM78 76.181h-.686v-.998h-3.337V71.55h.686v3.025h2.059V71.55h.686v3.025h.593v1.606ZM80.419 75.183h-.687V71.55h.687v2.65l2.121-2.65h.686v3.633h-.686v-2.65l-2.121 2.65ZM88.077 71.55h.686v3.633h-.686v-1.528h-2.121v1.528h-.687V71.55h.687v1.497h2.121V71.55ZM94.177 72.594h-.749c-.202-.358-.53-.53-.966-.53-.36 0-.64.125-.874.375-.234.249-.343.545-.343.92 0 .374.11.67.343.92.234.25.515.374.874.374.436 0 .764-.172.966-.53h.75c-.126.358-.344.64-.656.842a1.885 1.885 0 0 1-1.06.312c-.53 0-.983-.187-1.358-.546-.358-.359-.545-.827-.545-1.372 0-.546.187-.998.546-1.373.358-.358.81-.546 1.356-.546.406 0 .75.11 1.061.312.312.203.53.484.655.842ZM95.955 71.534h.686v1.59l1.747-1.59h.905L97.28 73.36l2.012 1.809h-.905l-1.747-1.497v1.497h-.686v-3.634ZM101.475 75.168h-.686v-3.634h.686v2.651l2.122-2.65h.686v3.633h-.686v-2.651l-2.122 2.65ZM109.634 71.534l-1.482 1.794 1.498 1.84h-.827l-1.092-1.341-1.092 1.34h-.78l1.482-1.824-1.466-1.809h.842l1.045 1.31 1.061-1.31h.811ZM117.854 76.15h-.686v-.998h-3.338V71.52h.686v3.025h2.059v-3.025h.687v3.025h.592v1.606ZM121.254 74.637c.453 0 .78-.156.967-.483h.734a1.688 1.688 0 0 1-.64.826c-.296.203-.655.297-1.061.297-.545 0-.998-.187-1.357-.546-.358-.359-.545-.827-.545-1.388 0-.546.171-.998.53-1.372.343-.36.795-.546 1.341-.546.515 0 .936.187 1.279.546.343.358.515.81.515 1.325 0 .156 0 .25-.016.296h-2.932c.047.297.172.546.406.749.202.187.468.296.779.296Zm-.031-2.588c-.312 0-.577.093-.78.25a1.116 1.116 0 0 0-.374.685h2.23c-.046-.296-.155-.514-.343-.686a1.153 1.153 0 0 0-.733-.25ZM127.616 71.519h.686v3.633h-.686v-1.528h-2.121v1.528h-.686V71.52h.686v1.497h2.121v-1.497ZM129.879 72.127v-.593h3.494v.593h-1.404v3.025h-.686v-3.025h-1.404ZM135.634 76.758h-.687v-5.24h.687v.39c.296-.327.701-.499 1.216-.499.577 0 1.03.187 1.357.562.328.374.484.826.484 1.356 0 .53-.156.983-.484 1.357-.327.374-.78.562-1.357.562-.515 0-.92-.172-1.232-.5l.016 2.012Zm.327-4.382c-.234.218-.359.546-.359.951 0 .406.125.733.359.952.234.218.53.327.858.327.343 0 .624-.125.842-.374.219-.25.328-.562.328-.92a1.26 1.26 0 0 0-.343-.905 1.07 1.07 0 0 0-.843-.374 1.344 1.344 0 0 0-.842.343ZM142.184 71.41c.546 0 .998.186 1.357.545.359.359.546.826.546 1.372 0 .546-.187.998-.546 1.373-.359.358-.811.546-1.357.546-.546 0-.998-.188-1.357-.546-.359-.359-.546-.827-.546-1.373s.187-.998.546-1.372c.343-.359.811-.546 1.357-.546Zm-.873 2.837c.234.25.53.375.873.375.359 0 .64-.125.874-.375.234-.25.343-.545.343-.92 0-.374-.109-.67-.343-.92a1.158 1.158 0 0 0-.874-.374c-.359 0-.655.125-.873.374-.234.25-.343.546-.343.92-.016.375.109.67.343.92ZM148.768 73.328c.344.171.499.452.499.842 0 .28-.093.514-.296.701-.203.188-.483.281-.858.281h-2.199V71.52h2.168c.374 0 .671.093.858.265a.907.907 0 0 1 .296.701c0 .39-.156.671-.468.843Zm-2.183-.297h1.419c.374 0 .546-.156.546-.452 0-.312-.187-.452-.546-.452h-1.419v.904Zm0 1.513h1.45c.375 0 .546-.156.546-.452 0-.312-.187-.453-.546-.453h-1.45v.905Z" />
    <path fill="#7F9540"
      d="M113.191 32.422c-.609-.078-1.217-.124-1.825-.234-2.215-.42-3.915-1.606-5.116-3.493-1.061-1.637-1.576-3.462-1.794-5.38a15.108 15.108 0 0 1 .265-5.162c.343-1.528 1.03-2.916 1.825-4.242 1.357-2.245 3.088-4.164 5.132-5.786 1.013-.81 2.043-1.606 3.135-2.292 2.636-1.669 5.474-2.932 8.438-3.883C127.493.593 131.845-.093 136.29.016c3.603.094 7.113.702 10.451 2.105.889.375 1.731.905 2.589 1.357-.016.031-.031.078-.047.11-.437-.125-.889-.25-1.326-.406a33.437 33.437 0 0 0-8.11-1.638 37 37 0 0 0-10.965.765c-2.995.67-5.865 1.668-8.563 3.119-2.044 1.107-3.947 2.401-5.615 4.023-1.092 1.06-2.075 2.214-2.839 3.524-1.217 2.106-2.043 4.336-2.09 6.8v.265c2.199-3.462 4.96-6.222 8.656-7.938l.094.094c-.14.14-.265.28-.406.405-1.575 1.528-2.823 3.306-3.852 5.225-.624 1.154-1.108 2.401-1.248 3.727-.078.748-.078 1.497.187 2.23.499 1.419 1.607 2.043 2.995 2.261 1.778.265 3.494-.094 5.194-.546 2.371-.624 4.539-1.762 6.722-2.823 1.42-.686 2.792-1.497 4.196-2.214a38.287 38.287 0 0 1 6.769-2.698c2.215-.655 4.508-1.138 6.832-.904 1.591.156 3.166.514 4.742.748 1.013.14 2.027.297 3.041.328 1.716.03 2.527-.796 2.636-2.527.078-1.403-.25-2.729-.733-4.039-.749-2.058-1.919-3.867-3.416-5.458-.452-.483-.983-.889-1.435-1.388.172.094.359.187.53.28 1.779 1.077 3.167 2.543 4.383 4.196 1.342 1.793 2.34 3.774 2.917 5.926.733 2.698.452 5.302-.749 7.844a11.095 11.095 0 0 1-3.571 4.289c-2.621 1.902-5.584 2.776-8.829 2.604-.14 0-.265-.031-.436-.047.234-.218.452-.405.639-.608 1.404-1.497 2.059-3.213 1.513-5.256-.327-1.263-1.138-2.074-2.433-2.432-2.028-.562-4.024-.39-5.974.28-3.462 1.186-6.8 2.652-9.951 4.538-1.7 1.03-3.385 2.106-5.132 3.057-2.339 1.279-4.772 2.355-7.408 2.885-.624.125-1.264.156-1.903.234-.172.016-.343.047-.499.063-.203.046-.437.046-.655.046ZM25.205 56.158h-6.441v.015c-.312 0-.375-.078-.406-.046-.015.015.031.14.016.39-.031 1.029-.016 4.818-.016 8.14v2.308c0 2.682.375 4.398-1.388 4.632v-.016l-13.242-.015v.015h-.016v-.015c-.343 0-.608.078-.78.233a.501.501 0 0 0-.171.375h.015v.015h-.015l.03 6.363c0 .094.063.187.141.296l.265.281h13.695l1.388-.016v1.373c0 .031 0 12.18.016 12.96 0 .093.171.342.405.607.094.11.063.203.11.203l6.55.031a.594.594 0 0 0 .437-.218c.156-.187.265-.437.265-.733 0-3.478-.078-12.741-.078-12.757l-.015-1.34 1.357-.032 52.766.624-51.347 2.074c.031 2.698.062 8.749.062 11.431-.015 1.014-.39 1.903-.998 2.558-.64.686-1.513 1.107-2.464 1.091l-6.551-.015c-.858-.016-1.622-.5-2.184-1.139-.624-.717-1.076-1.715-1.092-2.34-.03-.872-.03-8.498-.03-11.664l-12.307.016c-.468 0-1.591-.406-2.309-1.201-.483-.53-.857-1.248-.857-2.121L0 72.158v-.015h.016c0-1.014.42-1.856 1.138-2.464.655-.546 1.544-.874 2.558-.874h.016l11.87.063v-4.211c0-3.353 0-7.158.015-8.187.031-.842.14-1.529.655-2.106.515-.608 1.264-.92 2.48-.92h6.442v2.714h.015Z" />
  </g>
  <defs>
    <clipPath id="a">
      <path fill="#fff" d="M0 0h159v97H0z" />
    </clipPath>
  </defs>
</svg>